<?xml version="1.0" encoding="iso-8859-1"?>
<!-- Generator: Adobe Illustrator 19.0.0, SVG Export Plug-In . SVG Version: 6.00 Build 0)  -->
<svg version="1.1" id="Capa_1" xmlns="http://www.w3.org/2000/svg" xmlns:xlink="http://www.w3.org/1999/xlink" x="0px" y="0px"
	 viewBox="0 0 512 512" style="enable-background:new 0 0 512 512;" xml:space="preserve">
<g>
	<g>
		<path d="M508.386,156.886l-51.709-31.317c-0.001,0-0.001,0-0.001,0c-2.761-1.671-5.925-2.555-9.151-2.555H401.53v-13.355h13.488
			c9.919,0,15.535-9.716,10.46-17.01l-40.651-58.407c-4.791-6.882-16.137-6.87-20.92,0L323.254,92.65
			c-5.065,7.283,0.532,17.008,10.462,17.008h12.314v13.355h-45.116c-3.034,0-6.01,0.831-8.606,2.403l-51.96,31.469
			c-2.171,1.306-3.614,3.754-3.614,6.415v4.956H20.787c-11.355,0-20.679,9.091-20.785,20.195L0,188.748v270.604
			c0,12.992,10.569,23.561,23.56,23.563c0.012,0,0.025,0,0.037,0h180.207c4.143,0,7.5-3.357,7.5-7.5s-3.357-7.5-7.5-7.5H44.387
			l154.242-127.675l10.554,7.849c7.253,5.393,17,5.391,24.248,0l10.554-7.849l154.243,127.675H238.807c-4.143,0-7.5,3.357-7.5,7.5
			s3.357,7.5,7.5,7.5h180.242c12.993,0,23.563-10.57,23.563-23.564V352.954c0-4.143-3.357-7.5-7.5-7.5s-7.5,3.357-7.5,7.5v106.399
			c0,3.74-2.482,7.176-6.253,8.237l-9.23-7.639L256.376,331.022c4.987-3.709,102.856-76.496,108.641-80.797h62.595v67.726
			c0,4.143,3.357,7.5,7.5,7.5c4.143,0,7.5-3.357,7.5-7.5v-67.726h52.723c9.189,0,16.664-7.475,16.664-16.663v-70.26
			C512,160.639,510.554,158.191,508.386,156.886z M340.132,94.658l34.232-49.185l34.232,49.185h-14.569c-4.143,0-7.5,3.358-7.5,7.5
			c0,10.857,0,42.492,0,53.642h-25.499c0-11.145,0-42.772,0-53.642c0-4.142-3.357-7.5-7.5-7.5H340.132z M300.078,138.248
			c0.252-0.152,0.541-0.233,0.835-0.233h45.116v21.925c0,5.976,4.859,10.862,10.861,10.862h33.778
			c6.081,0,10.861-4.987,10.861-10.862v-21.925h45.995c0.486,0,0.964,0.133,1.38,0.385l28.731,17.4h-25.841
			c-4.854,0-9.211,2.177-12.081,5.684c-1.723,2.104-2.91,4.687-3.351,7.567l-0.345,2.259l-1.036,6.775
			c-0.005,0.033-0.029,0.055-0.045,0.082c-0.023,0.038-0.049,0.067-0.088,0.088c-0.036,0.019-0.07,0.042-0.113,0.042H313.901
			l-1.465-9.431c-1.178-7.572-7.594-13.068-15.257-13.068h-26.083L300.078,138.248z M21.254,467.588
			c-3.762-1.052-6.253-4.496-6.253-8.237l0.001-255.677l171.234,127.348C180.359,335.886,28.564,461.538,21.254,467.588z
			 M224.478,336.05c-1.897,1.41-4.446,1.411-6.344-0.001C190.64,315.603,43.69,206.315,15.973,185.702
			c1.138-1.591,2.983-2.444,4.814-2.444h215.945v49.836c0,9.446,7.685,17.131,17.13,17.131h86.017
			C336.18,252.976,227.903,333.502,224.478,336.05z M496.999,233.561c0,0.917-0.746,1.663-1.663,1.663c-6.136,0-230.943,0-241.474,0
			c-1.174,0-2.129-0.955-2.129-2.13v-62.292h45.446c0.218,0,0.4,0.157,0.434,0.372l1.582,10.181
			c0.067,0.433,0.153,0.858,0.257,1.275c1.348,5.421,5.707,9.461,11.121,10.442c0.833,0.151,1.691,0.229,2.566,0.229h0.001h121.597
			c0.798,0,1.578-0.073,2.344-0.19c0.145-0.022,0.292-0.033,0.435-0.059c6.313-1.144,11.293-6.133,12.296-12.697l1.381-9.036
			c0.045-0.295,0.304-0.518,0.603-0.518h45.204V233.561z"/>
	</g>
</g>
<g>
</g>
<g>
</g>
<g>
</g>
<g>
</g>
<g>
</g>
<g>
</g>
<g>
</g>
<g>
</g>
<g>
</g>
<g>
</g>
<g>
</g>
<g>
</g>
<g>
</g>
<g>
</g>
<g>
</g>
</svg>
